<svg xmlns="http://www.w3.org/2000/svg" xmlns:xlink="http://www.w3.org/1999/xlink" width="346" height="123" viewBox="0 0 346 123" version="1.1">
    <!-- Generator: Sketch 50.2 (55047) - http://www.bohemiancoding.com/sketch -->
    <title>code</title>
    <desc>Created with Sketch.</desc>
    <defs/>
    <g id="Search-flow" stroke="none" stroke-width="1" fill="none" fill-rule="evenodd">
        <g id="Find-a-club---search-form-1" transform="translate(-754.000000, -147.000000)" fill="#40AC42">
            <g id="20180419_141612" transform="translate(0.000000, 127.000000)">
                <path d="M839.679111,68.5484 L899.442849,68.5484 C907.150154,68.5484 913.39816,74.7964057 913.39816,82.5037113 C913.39816,90.2110169 907.150154,96.4590226 899.442849,96.4590226 L839.679111,96.4590226 C831.971806,96.4590226 825.7238,90.2110169 825.7238,82.5037113 C825.7238,74.7964057 831.971806,68.5484 839.679111,68.5484 Z M845.543889,114.976562 L847.788539,114.976562 C855.495845,114.976562 861.74385,121.224568 861.74385,128.931874 C861.74385,136.639179 855.495845,142.887185 847.788539,142.887185 L845.543889,142.887185 C837.836583,142.887185 831.588578,136.639179 831.588578,128.931874 C831.588578,121.224568 837.836583,114.976562 845.543889,114.976562 Z M959.853542,68.5484 L1019.61728,68.5484 C1027.32459,68.5484 1033.57259,74.7964057 1033.57259,82.5037113 C1033.57259,90.2110169 1027.32459,96.4590226 1019.61728,96.4590226 L959.853542,96.4590226 C952.146236,96.4590226 945.898231,90.2110169 945.898231,82.5037113 C945.898231,74.7964057 952.146236,68.5484 959.853542,68.5484 Z M916.016362,114.976562 L975.7801,114.976562 C983.487405,114.976562 989.735411,121.224568 989.735411,128.931874 C989.735411,136.639179 983.487405,142.887185 975.7801,142.887185 L916.016362,142.887185 C908.309056,142.887185 902.061051,136.639179 902.061051,128.931874 C902.061051,121.224568 908.309056,114.976562 916.016362,114.976562 Z M1070.39377,68.5484 L1130.15751,68.5484 C1137.86481,68.5484 1144.11282,74.7964057 1144.11282,82.5037113 C1144.11282,90.2110169 1137.86481,96.4590226 1130.15751,96.4590226 L1070.39377,96.4590226 C1062.68647,96.4590226 1056.43846,90.2110169 1056.43846,82.5037113 C1056.43846,74.7964057 1062.68647,68.5484 1070.39377,68.5484 Z M1026.55659,114.976562 L1028.80124,114.976562 C1036.50855,114.976562 1042.75655,121.224568 1042.75655,128.931874 C1042.75655,136.639179 1036.50855,142.887185 1028.80124,142.887185 L1026.55659,142.887185 C1018.84929,142.887185 1012.60128,136.639179 1012.60128,128.931874 C1012.60128,121.224568 1018.84929,114.976562 1026.55659,114.976562 Z M1035.84594,20.9627808 L1095.60967,20.9627808 C1103.31698,20.9627808 1109.56499,27.2107865 1109.56499,34.9180922 C1109.56499,42.6253978 1103.31698,48.8734035 1095.60967,48.8734035 L1035.84594,48.8734035 C1028.13863,48.8734035 1021.89062,42.6253978 1021.89062,34.9180922 C1021.89062,27.2107865 1028.13863,20.9627808 1035.84594,20.9627808 Z M916.016362,20.8871851 L931.942919,20.8871851 C939.650225,20.8871851 945.898231,27.1351908 945.898231,34.8424965 C945.898231,42.5498021 939.650225,48.7978078 931.942919,48.7978078 L916.016362,48.7978078 C908.309056,48.7978078 902.061051,42.5498021 902.061051,34.8424965 C902.061051,27.1351908 908.309056,20.8871851 916.016362,20.8871851 Z M768.478116,20.8871851 L855.605669,20.8871851 C863.312974,20.8871851 869.56098,27.1351908 869.56098,34.8424965 C869.56098,42.5498021 863.312974,48.7978078 855.605669,48.7978078 L768.478116,48.7978078 C760.77081,48.7978078 754.522804,42.5498021 754.522804,34.8424965 C754.522804,27.1351908 760.77081,20.8871851 768.478116,20.8871851 Z M976.35092,20.8871851 L992.277477,20.8871851 C999.984783,20.8871851 1006.23279,27.1351908 1006.23279,34.8424965 C1006.23279,42.5498021 999.984783,48.7978078 992.277477,48.7978078 L976.35092,48.7978078 C968.643614,48.7978078 962.395609,42.5498021 962.395609,34.8424965 C962.395609,27.1351908 968.643614,20.8871851 976.35092,20.8871851 Z" id="code"/>
            </g>
        </g>
    </g>
</svg>