<svg xmlns="http://www.w3.org/2000/svg" xmlns:xlink="http://www.w3.org/1999/xlink" width="30" height="30" viewBox="0 0 30 30" version="1.1">
    <!-- Generator: Sketch 50.2 (55047) - http://www.bohemiancoding.com/sketch -->
    <title>Group</title>
    <desc>Created with Sketch.</desc>
    <defs/>
    <g id="Page-1" stroke="none" stroke-width="1" fill="none" fill-rule="evenodd">
        <g id="nav-down---logged-out" transform="translate(-35.000000, -480.000000)">
            <g id="Group" transform="translate(35.000000, 480.000000)">
                <rect id="Rectangle-6" fill="#FFFFFF" x="0" y="0" width="30" height="30" rx="5"/>
                <path d="M22.40376,16.9424984 C22.0678719,16.8251182 21.6997366,17.0026074 21.5823563,17.3390114 C20.6317053,20.063265 18.0539836,21.8938808 15.1682355,21.8938808 C12.2824874,21.8938808 9.70476574,20.063265 8.75411477,17.3390114 C8.63673452,17.0026074 8.26834115,16.8251182 7.93271105,16.9424984 C7.59630702,17.0598787 7.41881777,17.4274981 7.53619802,17.7639021 C8.66743397,21.0056606 11.734541,23.1837736 15.1682355,23.1837736 C18.6019301,23.1837736 21.6690371,21.0056606 22.8002731,17.7639021 C22.9176533,17.4274981 22.7401641,17.0598787 22.40376,16.9424984 Z M10.190652,12 C11.0176669,12 11.690652,11.3270149 11.690652,10.5 C11.690652,9.67278058 11.0176669,9 10.190652,9 C9.36363718,9 8.69065204,9.67298514 8.69065204,10.5 C8.69065204,11.3270149 9.36363718,12 10.190652,12 Z M20.1123056,12 C20.9393204,12 21.6123056,11.3270149 21.6123056,10.5 C21.6123056,9.67278058 20.9393204,9 20.1123056,9 C19.2852907,9 18.6123056,9.67298514 18.6123056,10.5 C18.6123056,11.3270149 19.2852907,12 20.1123056,12 Z" id="Shape" fill="#444444" fill-rule="nonzero"/>
            </g>
        </g>
    </g>
</svg>